<?xml version="1.0" encoding="iso-8859-1"?>
<!-- Generator: Adobe Illustrator 18.0.0, SVG Export Plug-In . SVG Version: 6.00 Build 0)  -->
<!DOCTYPE svg PUBLIC "-//W3C//DTD SVG 1.1//EN" "http://www.w3.org/Graphics/SVG/1.1/DTD/svg11.dtd">
<svg version="1.1" id="Capa_1" xmlns="http://www.w3.org/2000/svg" xmlns:xlink="http://www.w3.org/1999/xlink" x="0px" y="0px"
	 viewBox="0 0 392.398 392.398" style="enable-background:new 0 0 392.398 392.398;" xml:space="preserve">
<g>
	<g>
		<path d="M145.183,276.746c-6.279-2.5-12.922-1.768-18.769,1.834c-4.183-5.455-10.136-8.513-16.881-8.404
			c-9.508,0.135-18.114,6.627-21.416,16.152c-2.537,7.318-5.227,26.945,24.522,51.086c1.112,0.902,2.448,1.342,3.777,1.342
			l0.013-0.035l0.006,0.037c0.619,0,1.25-0.096,1.871-0.301c36.402-11.945,40.888-31.24,41.127-38.982
			C159.744,289.396,154.018,280.262,145.183,276.746z M117.678,325.978c-14.802-12.783-21.595-25.993-18.223-35.719
			c1.91-5.512,6.524-8.033,10.25-8.086c4.12-0.037,7.479,2.691,9.394,7.744l0.015-0.006c0.332,0.881,0.873,1.697,1.625,2.365
			c2.477,2.203,6.27,1.981,8.471-0.496c3.59-4.039,7.686-5.418,11.536-3.887c3.462,1.379,6.874,5.379,6.694,11.209
			C147.121,309.392,136.064,319.313,117.678,325.978z"/>
		<path d="M147.195,104.781c-6.105-2.903-12.783-2.606-18.852,0.607c-3.813-5.711-9.548-9.144-16.299-9.488
			c-9.486-0.479-18.508,5.432-22.425,14.722c-3.009,7.137-6.972,26.547,21.14,52.575c1.154,1.068,2.617,1.598,4.075,1.598
			l0.013-0.031l0.004,0.035c0.494,0,0.998-0.061,1.5-0.189c37.103-9.546,42.838-28.509,43.581-36.219
			C160.9,118.354,155.781,108.867,147.195,104.781z M147.988,127.238c-0.988,10.247-12.67,19.426-31.454,24.878
			c-13.937-13.722-19.855-27.348-15.857-36.833c2.266-5.374,7.028-7.586,10.755-7.398c4.138,0.211,7.288,3.174,8.87,8.342
			l0.044-0.014c0.273,0.901,0.737,1.757,1.444,2.474c2.326,2.358,6.125,2.384,8.484,0.056c3.846-3.795,8.023-4.904,11.764-3.125
			C145.404,117.219,148.548,121.433,147.988,127.238z"/>
		<path d="M304.219,286.328c-3.303-9.525-11.908-16.018-21.416-16.152c-6.756-0.092-12.695,2.95-16.87,8.387
			c-5.84-3.587-12.473-4.312-18.743-1.816c-8.835,3.516-14.562,12.65-14.25,22.729c0.238,7.742,4.725,27.037,41.126,38.982
			c0.621,0.205,1.251,0.301,1.872,0.301l0.001-0.004c1.321-0.004,2.651-0.442,3.757-1.34
			C309.445,313.273,306.756,293.646,304.219,286.328z M274.668,325.97c-18.371-6.666-29.417-16.583-29.734-26.866
			c-0.18-5.83,3.232-9.83,6.693-11.209c3.79-1.506,7.82-0.186,11.369,3.708c0.643,0.782,1.488,1.415,2.503,1.8
			c3.097,1.174,6.563-0.385,7.737-3.484c1.895-5,5.182-7.744,9.264-7.744c0.043,0,0.088,0,0.131,0
			c3.726,0.053,8.34,2.574,10.25,8.086C296.252,299.983,289.463,313.189,274.668,325.97z"/>
		<path d="M302.717,110.635c-3.916-9.291-12.929-15.21-22.424-14.722c-6.742,0.344-12.471,3.769-16.284,9.466
			c-6.064-3.205-12.735-3.498-18.833-0.597c-8.586,4.085-13.705,13.573-12.736,23.608c0.743,7.71,6.479,26.673,43.582,36.219
			c0.493,0.127,0.989,0.186,1.476,0.188l0.004,0.009c1.458,0,2.92-0.527,4.074-1.598
			C309.689,137.182,305.726,117.771,302.717,110.635z M275.82,152.111c-18.774-5.453-30.449-14.629-31.438-24.873
			c-0.559-5.805,2.584-10.02,5.949-11.62c3.676-1.751,7.771-0.703,11.561,2.933c0.697,0.756,1.594,1.347,2.647,1.67
			c3.172,0.969,6.523-0.813,7.494-3.982c1.581-5.167,4.73-8.129,8.869-8.341c3.719-0.179,8.489,2.025,10.755,7.4
			C295.656,124.777,289.746,138.395,275.82,152.111z"/>
		<path d="M358.779,75.934v-38.41c0-3.313-2.686-6-6-6c-0.239,0-50.374,5.795-156.58,5.795c-106.065,0-156.342-5.795-156.581-5.795
			c-3.313,0-6,2.687-6,6v38.41C0.386,160.105,0,346.93,0,354.875c0,3.314,2.685,6,6,6h158.676c2.615,0,4.93-1.693,5.721-4.188
			l25.804-81.427l25.804,81.427c0.789,2.494,3.104,4.188,5.719,4.188h158.676c3.314,0,6-2.686,6-6
			C392.398,346.93,392.014,160.105,358.779,75.934z M329,348.875c-3.167-7.823-3-14.845,0.566-19.613
			c2.578-3.447,6.662-5.223,10.416-4.52c3.648,0.682,6.39,3.678,7.718,8.432l0.031-0.009c0.251,0.907,0.693,1.773,1.382,2.507
			c2.268,2.414,6.066,2.533,8.48,0.266c4.576-4.299,9.65-4.934,13.568-1.699c3.422,2.825,5.461,8.383,2.857,14.637H329z
			 M354.569,101.213c-4.371,2.911-9.656,5.533-15.808,7.821c-9.332-7.9-15.524-15.97-18.044-23.399
			c13.697-0.832,23.021-1.629,28.113-2.114C350.875,89.003,352.782,94.935,354.569,101.213z M45.618,44.15
			c16.846,1.532,65.768,5.168,150.581,5.168s133.734-3.636,150.58-5.168v27.514c-15.264,1.428-63.943,5.217-150.58,5.217
			c-86.536,0-135.294-3.791-150.581-5.218V44.15z M211.883,88.838v115.021c0,8.648-7.035,15.683-15.684,15.683
			c-8.647,0-15.684-7.035-15.684-15.683V88.838c5.086,0.028,10.312,0.043,15.684,0.043
			C201.572,88.881,206.797,88.866,211.883,88.838z M43.566,83.52c5.09,0.485,14.41,1.281,28.099,2.113
			c-2.521,7.43-8.713,15.499-18.046,23.4c-6.144-2.285-11.426-4.903-15.794-7.812C39.613,94.94,41.521,89.006,43.566,83.52z
			 M63.371,348.875H18.353c-2.605-6.254-0.566-11.812,2.856-14.637c3.92-3.234,8.992-2.598,13.568,1.699l0.007-0.008
			c0.685,0.645,1.527,1.14,2.495,1.41c3.189,0.891,6.502-0.975,7.393-4.166c1.328-4.754,4.068-7.75,7.718-8.432
			c3.754-0.703,7.838,1.074,10.416,4.52C66.372,334.03,66.539,341.052,63.371,348.875z M201.92,253.586l-0.005,0.001
			c-0.57-1.795-1.971-3.296-3.903-3.907c-3.158-1.002-6.53,0.748-7.531,3.906l-30.197,95.289H76.036
			c2.956-10.146,1.76-19.605-3.621-26.801c-5.296-7.08-14.021-10.666-22.232-9.127c-5.795,1.084-10.579,4.463-13.815,9.575
			c-8.492-4.204-17.118-2.225-22.796,2.46c-0.376,0.31-0.735,0.645-1.092,0.982c0.372-14.215,1.03-32.76,2.196-53.57
			c5.001,7.961,14.772,16.962,33.576,24.477c0.73,0.291,1.484,0.43,2.225,0.43l0.01-0.049l0.016,0.047
			c1.203,0,2.418-0.361,3.475-1.113c31.211-22.215,29.766-41.973,27.694-49.435c-2.695-9.717-10.876-16.738-20.356-17.473
			c-6.731-0.523-12.861,2.148-17.377,7.323c-5.607-3.965-12.192-5.113-18.617-3.013c-3.197,1.045-6.041,2.826-8.408,5.124
			c1.3-16.789,2.943-34.235,5.02-51.484c3.33,6.274,8.432,13.266,16.045,20.876c1.168,1.167,2.699,1.752,4.23,1.755v0.005
			c0.422,0,0.85-0.045,1.277-0.137c37.441-8.119,43.897-26.85,44.935-34.525c1.351-9.99-3.401-19.666-11.825-24.077
			c-5.983-3.132-12.659-3.094-18.841-0.124c-3.592-5.847-9.188-9.493-15.918-10.096c-4.805-0.433-9.545,0.794-13.61,3.296
			c1.901-10.76,4.024-21.122,6.397-30.833c5.258,3.079,11.363,5.807,18.26,8.142c0.637,0.216,1.286,0.318,1.924,0.318l0.002-0.01
			l0.002,0.007c1.31,0,2.629-0.428,3.732-1.307c16.711-13.3,23.218-25.25,25.418-34.194c20.721,1.067,48.774,2.07,84.555,2.424
			v106.732c-4.479-5.983-11.417-9.616-18.771-9.425c-6.754,0.173-12.571,3.458-16.528,9.066c-5.983-3.361-12.647-3.824-18.818-1.076
			c-8.687,3.867-14.044,13.223-13.33,23.279c0.548,7.727,5.803,26.828,42.653,37.307c0.549,0.156,1.101,0.23,1.645,0.23l0.001-0.007
			l0.002,0.005c1.407,0,2.821-0.492,3.962-1.496c15.4-13.552,21.553-25.437,23.517-34.664c4.92,7.713,13.546,12.844,23.353,12.844
			c9.794,0,18.409-5.116,23.332-12.811c1.972,9.223,8.13,21.096,23.512,34.632c1.14,1.004,2.553,1.496,3.961,1.496l0.043-0.113
			l0.016,0.115c0.543,0,1.096-0.074,1.643-0.23c36.851-10.479,42.105-29.58,42.653-37.307c0.714-10.057-4.643-19.412-13.33-23.279
			c-6.186-2.754-12.864-2.283-18.857,1.098c-3.957-5.622-9.78-8.914-16.543-9.088c-7.348-0.206-14.269,3.419-18.746,9.385V88.747
			c35.77-0.354,63.816-1.355,84.535-2.423c2.202,8.945,8.712,20.895,25.42,34.193c1.105,0.879,2.424,1.307,3.732,1.307l0.002-0.007
			l0.002,0.01c0.639,0,1.287-0.103,1.925-0.318c6.912-2.341,13.006-5.085,18.267-8.175c2.378,9.725,4.504,20.102,6.409,30.879
			c-4.069-2.507-8.815-3.737-13.625-3.309c-6.729,0.603-12.327,4.249-15.919,10.098c-6.184-2.973-12.861-3.013-18.847,0.123
			c-8.423,4.41-13.175,14.086-11.823,24.076c1.037,7.676,7.494,26.406,44.936,34.525c0.43,0.092,0.856,0.137,1.277,0.137v-0.005
			c1.533-0.001,3.066-0.587,4.236-1.755c7.62-7.617,12.725-14.614,16.054-20.894c2.081,17.275,3.725,34.748,5.026,51.562
			c-2.379-2.327-5.245-4.13-8.471-5.184c-6.417-2.097-12.994-0.954-18.598,2.999c-4.514-5.165-10.637-7.829-17.365-7.31
			c-9.48,0.734-17.66,7.756-20.355,17.473c-2.07,7.463-3.517,27.221,27.695,49.435c1.052,0.75,2.263,1.11,3.464,1.112l0.001,0.003
			c0.741,0,1.495-0.139,2.225-0.43c18.869-7.541,28.646-16.579,33.633-24.56c1.17,20.853,1.829,39.435,2.201,53.671
			c-0.364-0.347-0.735-0.684-1.119-1c-5.678-4.684-14.304-6.664-22.795-2.461c-3.237-5.111-8.021-8.49-13.816-9.574
			c-8.21-1.539-16.936,2.047-22.232,9.129c-5.381,7.194-6.579,16.653-3.627,26.799h-84.215L201.92,253.586z M21.659,255.758
			c0.188-5.83,3.846-9.605,7.388-10.764c3.938-1.287,7.939,0.35,11.269,4.605l0.014-0.011c0.578,0.743,1.337,1.362,2.254,1.778
			c3.018,1.365,6.574,0.029,7.941-2.99c2.229-4.922,5.734-7.455,9.861-7.135c3.715,0.287,8.162,3.094,9.721,8.715
			c2.752,9.918-4.859,22.675-20.438,34.499C31.738,276.644,21.328,266.047,21.659,255.758z M29.734,159.838
			c2.471-5.283,7.318-7.313,11.031-6.982c4.127,0.37,7.161,3.45,8.543,8.673l0.021-0.005c0.239,0.909,0.669,1.78,1.347,2.523
			c2.236,2.447,6.032,2.617,8.477,0.381c3.988-3.645,8.205-4.594,11.877-2.674c3.3,1.729,6.28,6.061,5.498,11.84
			c-1.379,10.199-13.394,18.92-32.363,23.65C30.766,183.001,25.377,169.163,29.734,159.838z M143.844,242.135
			c-18.636-5.925-30.077-15.394-30.807-25.66c-0.412-5.818,2.837-9.953,6.24-11.467c3.785-1.686,7.934-0.471,11.684,3.422
			l0.006-0.006c0.65,0.677,1.467,1.213,2.419,1.531c3.146,1.049,6.542-0.648,7.591-3.793c1.711-5.123,4.935-8.006,9.076-8.111
			c3.73-0.084,8.436,2.238,10.566,7.668C164.376,215.301,158.118,228.77,143.844,242.135z M231.754,205.719
			c2.13-5.43,6.852-7.752,10.565-7.668c4.142,0.105,7.364,2.988,9.075,8.111l0.078-0.026c0.295,0.899,0.781,1.748,1.51,2.45
			c2.385,2.299,6.184,2.228,8.483-0.156c3.749-3.893,7.899-5.107,11.684-3.422c3.403,1.514,6.653,5.648,6.24,11.467
			c-0.728,10.274-12.188,19.749-30.847,25.673C234.258,228.779,227.995,215.304,231.754,205.719z M348.222,197.245
			c-18.972-4.73-30.99-13.452-32.37-23.651c-0.781-5.779,2.199-10.111,5.499-11.838c3.671-1.926,7.889-0.973,11.878,2.672
			l0.004-0.004c0.691,0.633,1.539,1.114,2.509,1.371c3.199,0.848,6.487-1.061,7.335-4.266c1.383-5.223,4.416-8.303,8.543-8.673
			c3.717-0.329,8.563,1.698,11.031,6.982C367.01,169.163,361.619,183.002,348.222,197.245z M370.681,255.758
			c0.331,10.285-10.071,20.878-27.991,28.688c-15.569-11.821-23.176-24.572-20.426-34.489c1.56-5.621,6.006-8.428,9.721-8.715
			c4.06-0.312,7.523,2.142,9.758,6.916c0.381,0.941,1.002,1.801,1.859,2.471c2.609,2.041,6.38,1.582,8.422-1.029
			c3.328-4.256,7.33-5.893,11.27-4.605C366.835,246.152,370.492,249.928,370.681,255.758z"/>
	</g>
</g>
<g>
</g>
<g>
</g>
<g>
</g>
<g>
</g>
<g>
</g>
<g>
</g>
<g>
</g>
<g>
</g>
<g>
</g>
<g>
</g>
<g>
</g>
<g>
</g>
<g>
</g>
<g>
</g>
<g>
</g>
</svg>
